PathFileType	4	(X/Y/Z)	C:\Users\Basilio\Documents\Thesis Gigler\squatting_fais\c3dfiles\075\SLS_back_pre2\markers_experimental.trc
DataRate	CameraRate	NumFrames	NumMarkers	Units	OrigDataRate	OrigDataStartFrame	OrigNumFrames
200.000000	200.000000	4	61	mm	200.000000	498	1329
Frame#	Time	FHD			LBHD			C7			T10			CLAV			LSHO			LUUPA			LMUPA			LDUPA			LLEP			LMEP			LRAD			LUL			LRFIN			RSHO			RUPA1			RMUPA			RDUPA			RLEP			RMEP			RRAD			RUL			RUFIN			LASI			RASI			USACR			LSACR			RSACR			LTHI1			LTHI2			LTHI3			LTHI4			LLFC			LMFC			LTIB1			LTIB2			LTIB3			LTIB4			LLMAL			LMMAL			LHEE			LMT1			LMT2			LMT5			RTHI			RTHI2			RTHI3			RTHI4			RLFC			RMFC			RTIB1			RTIB2			RTIB3			RTIB4			RLMAL			RMMAL			RHEE			RMT1			RMT2			RMT5			RBHD			
		X1	Y1	Z1	X2	Y2	Z2	X3	Y3	Z3	X4	Y4	Z4	X5	Y5	Z5	X6	Y6	Z6	X7	Y7	Z7	X8	Y8	Z8	X9	Y9	Z9	X10	Y10	Z10	X11	Y11	Z11	X12	Y12	Z12	X13	Y13	Z13	X14	Y14	Z14	X15	Y15	Z15	X16	Y16	Z16	X17	Y17	Z17	X18	Y18	Z18	X19	Y19	Z19	X20	Y20	Z20	X21	Y21	Z21	X22	Y22	Z22	X23	Y23	Z23	X24	Y24	Z24	X25	Y25	Z25	X26	Y26	Z26	X27	Y27	Z27	X28	Y28	Z28	X29	Y29	Z29	X30	Y30	Z30	X31	Y31	Z31	X32	Y32	Z32	X33	Y33	Z33	X34	Y34	Z34	X35	Y35	Z35	X36	Y36	Z36	X37	Y37	Z37	X38	Y38	Z38	X39	Y39	Z39	X40	Y40	Z40	X41	Y41	Z41	X42	Y42	Z42	X43	Y43	Z43	X44	Y44	Z44	X45	Y45	Z45	X46	Y46	Z46	X47	Y47	Z47	X48	Y48	Z48	X49	Y49	Z49	X50	Y50	Z50	X51	Y51	Z51	X52	Y52	Z52	X53	Y53	Z53	X54	Y54	Z54	X55	Y55	Z55	X56	Y56	Z56	X57	Y57	Z57	X58	Y58	Z58	X59	Y59	Z59	X60	Y60	Z60	X61	Y61	Z61	

499	2.49	-230.2725524902344	1617.407470703125	-747.6116333007814	-373.3659057617188	1499.429809570313	-821.2183837890627	-409.4202270507814	1392.267333984375	-764.7533569335939	-476.8291320800782	1080.787353515625	-777.7568969726565	-271.6101379394532	1320.404174804688	-761.2509765625001	-297.1170349121094	1377.250366210938	-894.920593261719	-151.0618743896485	1300.9697265625	-997.1229248046877	-121.4883499145508	1321.743530273438	-963.0942382812502	-82.42919921875001	1293.285522460938	-998.1093750000002	1.448959231376648	1281.543090820313	-985.254577636719	-19.75769805908203	1207.222412109375	-945.6245727539065	nan	nan	nan	223.4237518310547	1299.544921875	-850.5266113281252	221.6803131103516	1324.672119140625	-746.3790893554689	-310.2590026855469	1355.830810546875	-620.8834228515626	-179.915512084961	1266.033935546875	-508.5242309570314	-143.5060577392578	1287.9765625	-533.0954589843751	-111.9749450683594	1251.49560546875	-495.4779663085939	-40.58128738403321	1244.962890625	-495.7366638183595	-35.13377761840821	1174.493286132813	-530.9545288085939	158.5471649169922	1299.482421875	-683.8989868164064	187.9046936035157	1294.51953125	-611.7765502929689	229.1478729248047	1340.998901367188	-711.6311035156251	-355.5778198242188	896.9711914062502	-924.6370849609377	-344.6521301269532	881.7756958007815	-672.9927368164064	-494.5993957519532	982.447448730469	-789.3363037109377	-507.2646484375001	955.241394042969	-819.1738891601565	-506.2106933593751	951.514099121094	-761.0154418945314	-364.8053894042969	685.7996826171876	-1026.790161132813	-315.7807312011719	616.8763427734376	-1037.4755859375	-275.9801330566407	624.6175537109376	-1009.713928222656	-333.4550476074219	558.5432128906251	-1046.059326171875	-333.7249145507813	469.4080200195314	-1047.352172851563	-320.1302185058594	422.9442443847657	-921.3601074218752	-401.0646362304689	358.4364318847657	-1019.099853515625	-461.5784606933595	403.9700927734376	-1064.192993164063	-452.2952575683595	364.1032714843751	-1049.052368164063	-526.3118286132814	335.8052978515626	-1018.218627929688	-686.6082763671876	363.7619323730469	-1031.895263671875	-656.8689575195314	332.8825988769532	-953.2976684570315	-723.9095458984376	406.3222961425782	-981.4072875976565	-703.2091674804689	197.9933319091797	-964.6286621093752	-709.0250244140626	195.6817169189454	-1014.19384765625	-745.6060791015626	232.7299041748047	-1056.162231445313	-366.9077758789063	698.5375366210939	-612.9367065429689	-307.3032226562501	669.9292602539064	-615.7592773437501	-281.8533020019532	690.2394409179689	-625.3218994140626	-292.5719604492188	586.8423461914064	-625.3042602539064	-243.0560150146485	452.1872863769532	-668.2368164062501	-210.8648376464844	466.9798583984376	-789.048767089844	-223.4480743408204	318.0180969238282	-758.5038452148439	-291.6218872070313	249.1502380371094	-708.7105712890626	-260.9095458984376	240.1148681640626	-745.5174560546876	-288.7205200195313	210.2263183593751	-787.508483886719	-391.3516845703126	111.8208923339844	-761.8438110351564	-358.8191528320313	143.2136383056641	-840.8165283203127	-449.125701904297	98.34876251220706	-822.721618652344	-246.9731750488282	57.64355087280275	-835.021667480469	-246.2855987548829	55.43189239501955	-792.6987304687502	-283.8728637695313	33.78292846679688	-741.0877075195314	nan	nan	nan	
500	2.495	-229.6420898437501	1615.99169921875	-747.5557250976564	-372.6645812988282	1498.603149414063	-821.3646240234377	-409.0774536132814	1391.247314453125	-764.8456420898439	-476.9343872070314	1079.835205078125	-777.7576904296877	-271.2415466308594	1319.117431640625	-761.1959838867189	-296.7259521484376	1375.994140625	-894.886169433594	-150.6302185058594	1299.816040039063	-997.054870605469	-121.6476364135742	1320.622436523438	-963.0737915039065	-82.10533905029298	1292.314208984375	-998.1219482421877	0.8031997680664065	1280.75341796875	-985.4620361328127	-19.24666976928711	1206.24560546875	-945.5213012695315	nan	nan	nan	223.7448730468751	1298.458740234375	-850.2305297851565	222.1108093261719	1323.55712890625	-746.3548583984376	-309.9022827148438	1354.612060546875	-620.9827270507814	-179.7332763671875	1264.949584960938	-508.651092529297	-143.2926483154297	1286.9697265625	-533.0935058593751	-111.7331085205078	1250.437622070313	-495.4751281738282	-40.23194885253907	1243.948486328125	-495.7229003906251	-34.80668640136719	1173.481689453125	-530.8425903320314	158.9757995605469	1298.447143554688	-684.0567016601564	188.1796875	1293.5361328125	-611.6613159179689	229.5509185791016	1340.100219726563	-711.5577392578126	-355.8237304687501	895.7119750976565	-924.457946777344	-345.2209472656251	880.6625976562502	-673.0160522460939	-494.9388732910157	981.5054321289065	-789.3118286132815	-507.4990844726564	954.233825683594	-819.262634277344	-505.9759521484376	950.2806396484377	-761.3489990234376	-365.0071716308594	684.6733398437501	-1026.726318359375	-315.7882080078126	615.6967163085939	-1037.432861328125	-276.0578308105469	623.7269897460939	-1009.516906738281	-332.9315185546876	557.5165405273439	-1045.80078125	-333.5276794433594	468.2148742675782	-1047.07470703125	-320.1286315917969	422.1570739746095	-921.3284301757815	-401.4073181152345	357.6739196777344	-1019.47412109375	-461.3113403320314	402.8477172851564	-1064.0703125	-452.1658325195314	363.0195312500001	-1048.959228515625	-526.6916503906251	334.9373779296876	-1018.489135742188	-686.4107666015626	362.7128295898438	-1032.05712890625	-656.8685913085939	331.9539794921876	-953.430603027344	-723.7166137695314	405.2259216308595	-981.5609130859377	-703.2178344726564	197.1695861816407	-964.7984008789065	-708.7839355468751	194.6040649414063	-1014.028869628906	-745.2526855468751	231.5393829345704	-1056.1943359375	-367.0722045898438	697.7706909179689	-612.9525146484376	-307.5070190429688	669.1702270507814	-615.8731079101564	-282.0584106445313	689.6271972656251	-625.1904296875001	-292.4383239746094	586.2989501953126	-625.2108154296876	-242.4765167236329	451.8524169921876	-668.1355590820314	-210.3226928710938	466.7440185546876	-789.0037231445315	-223.1216125488282	317.7307434082032	-758.4801635742189	-291.1815185546876	249.0636596679688	-708.6087646484376	-260.6824645996094	239.9898986816407	-745.6468505859376	-288.4587402343751	210.0338897705079	-787.5003051757815	-391.3131408691407	111.8545608520508	-761.8351440429689	-358.6564025878907	143.1577453613282	-840.8115844726565	-449.166717529297	98.38057708740237	-822.743103027344	-247.0079650878907	57.6201629638672	-835.0259399414065	-246.3106842041016	55.4176712036133	-792.7361450195315	-283.8816833496094	33.76588821411134	-741.0774536132814	nan	nan	nan	
501	2.5	-229.3057708740235	1614.698486328125	-747.6933593750001	-372.3996276855469	1497.310913085938	-821.319030761719	-408.7468566894532	1390.052734375	-764.8471679687501	-476.9893188476564	1078.825805664063	-777.9151000976565	-270.9489135742188	1317.900146484375	-761.2842407226564	-296.2388610839844	1374.866577148438	-894.8325195312502	-150.3502197265625	1298.829223632813	-997.1696777343752	-121.1866912841797	1319.459716796875	-963.238708496094	-82.49061584472658	1291.333618164063	-998.1545410156252	2.211550235748291	1279.556396484375	-985.2149658203127	-18.96097946166993	1205.187133789063	-945.7017211914065	nan	nan	nan	224.019027709961	1297.343017578125	-850.234313964844	222.5184783935547	1322.58203125	-746.2585449218751	-309.6333923339844	1353.420043945313	-621.0910644531251	-179.3994750976563	1263.89404296875	-508.6341552734376	-142.9488220214844	1285.842651367188	-533.1195678710939	-111.4758529663086	1249.372192382813	-495.4343261718751	-40.01597213745118	1242.892333984375	-495.7706909179689	-34.47072982788087	1172.321655273438	-530.9468383789064	159.4354705810547	1297.25244140625	-683.8101806640626	188.3756103515625	1292.497802734375	-611.6843872070314	229.6977844238282	1338.973999023438	-711.4698486328126	-356.3507995605469	894.4940185546877	-924.655456542969	-345.7138061523438	879.3642578125002	-673.1900634765626	-495.0874023437501	980.4237060546877	-789.358337402344	-507.7575073242189	953.170349121094	-819.2298583984377	-506.300750732422	949.4217529296877	-761.4544067382814	-365.1683959960938	683.7994995117189	-1026.701293945313	-315.7977600097657	614.8346557617189	-1037.318725585938	-275.9903259277344	622.7401123046876	-1009.318054199219	-333.7115783691407	556.6663208007814	-1045.852294921875	-333.4516296386719	467.2742919921876	-1046.89990234375	-320.1771240234376	421.1017150878907	-921.170349121094	-400.9913940429689	356.5013732910157	-1018.698547363281	-461.2878723144532	401.6337890625001	-1064.065673828125	-452.3874511718751	362.2273254394532	-1049.053955078125	-526.2075805664064	333.8089294433594	-1017.946960449219	-686.2531738281251	361.8161926269532	-1032.396118164063	-656.8760375976564	331.0364685058594	-953.6291503906252	-723.6019287109376	404.3738098144532	-981.7821044921877	-703.2462768554689	196.0225372314454	-964.6646728515627	-708.3166503906251	193.2795867919922	-1013.821655273438	-745.2358398437501	230.5644531250001	-1056.335327148438	-367.3143310546876	696.9920043945314	-613.0448608398439	-307.6459045410157	668.5675048828126	-615.8624877929689	-282.2724304199219	689.0340576171876	-625.1026000976564	-292.3652343750001	585.6469116210939	-625.2168579101564	-241.8452911376954	451.4538879394532	-668.0369873046876	-209.7527465820313	466.4104614257814	-788.908142089844	-222.9444427490235	317.5200805664063	-758.6791992187501	-290.8621215820313	248.8668823242188	-708.6164550781251	-260.3601074218751	239.6809234619141	-745.6477661132814	-288.2515258789063	209.8791198730469	-787.5842895507815	-391.2207641601564	111.8374557495117	-761.8333129882814	-358.6469421386719	143.1193389892578	-840.8501586914065	-449.1376037597657	98.41794586181643	-822.7480468750002	-247.0683898925782	57.68578338623048	-834.9978637695315	-246.2990264892579	55.46040725708009	-792.684509277344	-283.8580932617188	33.7682113647461	-741.0460815429689	nan	nan	nan	
502	2.505	-228.8085479736329	1613.554565429688	-747.7149047851564	-371.8975219726563	1496.378540039063	-821.4866333007815	-408.2430419921876	1388.962768554688	-764.9377441406251	-477.1020507812501	1077.9052734375	-777.934020996094	-270.6495361328126	1316.598266601563	-761.3706054687501	-295.9576110839844	1373.681884765625	-894.8588867187502	-150.0536499023438	1297.687133789063	-997.166931152344	-120.8824157714844	1318.442749023438	-963.3052368164065	-81.35440826416017	1290.004150390625	-998.1674804687502	2.78922462463379	1278.807006835938	-986.148864746094	-18.55097579956055	1203.873657226563	-945.5081176757815	nan	nan	nan	224.5382690429688	1296.455200195313	-850.2775878906252	222.7656402587891	1321.450317382813	-746.2572021484376	-309.3540649414063	1352.19140625	-621.2561645507814	-179.2282867431641	1262.69677734375	-508.6723632812501	-142.7384338378907	1284.72216796875	-533.1588134765626	-111.2422027587891	1248.244873046875	-495.4897766113282	-39.81584167480469	1241.684692382813	-495.7334594726564	-34.22346878051759	1171.264892578125	-530.8319091796876	159.3692779541016	1296.256225585938	-683.7969970703126	188.656494140625	1291.3740234375	-611.6932983398439	229.9762268066407	1337.935791015625	-711.4827880859376	-356.7812194824219	893.502380371094	-924.6519775390627	-346.1170349121094	878.3771972656252	-673.0420532226564	-495.4018554687501	979.4936523437502	-789.5137329101565	-507.9729614257814	952.2578735351565	-819.388366699219	-507.3034667968751	948.5054931640627	-761.2454223632814	-365.1663818359376	682.8188476562501	-1026.774780273438	-315.9477233886719	613.9024658203126	-1037.096069335938	-276.1311645507813	621.6258544921876	-1009.068786621094	-333.5397338867188	555.6126098632814	-1045.738891601563	-333.3266601562501	466.3422851562501	-1046.928833007813	-320.1749267578126	420.0799255371095	-920.961364746094	-400.8942260742189	355.5992431640626	-1018.799133300781	-461.1997375488282	400.8522949218751	-1064.067260742188	-452.180389404297	361.2152404785157	-1048.926391601563	-526.1188964843751	332.7569274902344	-1018.277648925781	-685.9912109375001	360.4279785156251	-1031.442626953125	-656.8179931640626	330.0908203125001	-953.6993408203127	-723.4880981445314	403.3455200195314	-982.0144042968752	-703.1480102539064	195.1896667480469	-964.6015625000002	-708.3541259765626	192.5011901855469	-1014.0048828125	-745.1486206054689	229.6281738281251	-1056.46533203125	-367.6543579101563	696.0917968750001	-612.9783935546876	-307.7745971679688	667.9265747070314	-615.9168090820314	-282.4469909667969	688.5233154296876	-625.0576171875001	-292.1850585937501	585.0700683593751	-625.1959838867189	-241.2677764892579	451.1194458007814	-667.9504394531251	-209.121566772461	466.1013488769532	-788.8818969726565	-222.5330352783204	317.3440246582032	-758.7546997070314	-290.4891052246094	248.5965728759766	-708.6241455078126	-260.1192932128907	239.4822235107422	-745.7266845703126	-288.0399475097657	209.7467956542969	-787.6179199218752	-391.2215270996095	111.7978820800782	-761.8571777343751	-358.4768371582032	143.0977630615235	-840.839782714844	-449.0804748535157	98.37961578369143	-822.7520751953127	-247.0453033447266	57.60423660278322	-834.9893188476565	-246.2784118652344	55.46859359741212	-792.6712646484377	-283.8550720214844	33.78207778930665	-741.0425415039064	nan	nan	nan	
